<?xml version="1.0" standalone="no"?>
<!DOCTYPE svg PUBLIC "-//W3C//DTD SVG 20010904//EN"
 "http://www.w3.org/TR/2001/REC-SVG-20010904/DTD/svg10.dtd">
<svg version="1.0" xmlns="http://www.w3.org/2000/svg"
 width="228.000000pt" height="227.000000pt" viewBox="0 0 228.000000 227.000000"
 preserveAspectRatio="xMidYMid meet">

<g transform="translate(0.000000,227.000000) scale(0.100000,-0.100000)"
fill="#000000" stroke="none">
<path d="M547 2029 c-3 -11 -11 -19 -19 -18 -26 4 -55 -17 -145 -107 -135
-135 -212 -264 -268 -449 -37 -122 -47 -374 -20 -487 87 -359 322 -636 652
-767 202 -81 540 -83 711 -5 29 13 57 24 63 24 16 0 139 74 206 125 85 63 203
191 258 279 76 123 110 226 73 226 -5 0 -6 5 -2 12 4 6 3 8 -3 5 -10 -6 -63
49 -63 65 0 4 -4 7 -8 6 -5 -2 -30 16 -55 40 -26 23 -44 42 -40 42 4 0 -10 15
-30 33 -35 31 -36 34 -21 55 19 27 45 28 69 2 13 -15 31 -20 65 -20 40 0 49 4
68 30 12 16 22 32 22 35 0 3 -20 5 -44 5 -24 0 -51 3 -60 6 -28 11 -17 24 21
24 26 0 45 8 65 27 15 15 28 30 28 35 0 4 -22 8 -48 8 -42 0 -53 5 -82 35 -19
19 -40 35 -47 35 -9 0 -13 17 -13 56 l0 56 -77 74 -78 74 -234 0 c-188 0 -231
2 -223 13 8 9 1 23 -28 55 -22 23 -46 42 -55 42 -8 0 -14 3 -13 8 3 14 -14 42
-26 42 -7 0 -22 11 -34 25 -12 14 -20 25 -17 25 3 0 -4 9 -15 20 -11 11 -23
20 -28 20 -4 0 -21 16 -37 35 -17 19 -36 35 -43 35 -7 0 -10 5 -7 10 3 6 -1
10 -10 10 -9 0 -13 5 -10 10 14 22 -38 49 -95 50 -41 0 -70 7 -112 29 -47 24
-63 28 -88 21 -17 -5 -43 -5 -62 1 -18 5 -33 9 -34 9 -1 0 -4 -9 -7 -21z
m1233 -848 c0 -11 -4 -23 -10 -26 -6 -4 -10 5 -10 19 0 14 5 26 10 26 6 0 10
-9 10 -19z m-280 -209 c0 -5 -13 -21 -30 -37 -16 -16 -30 -35 -30 -42 0 -18
-9 -16 -28 7 -17 20 -18 19 -64 -25 -65 -60 -63 -75 7 -75 30 0 55 -4 55 -9 0
-4 -113 -117 -252 -250 -272 -260 -281 -266 -328 -216 -13 14 -29 25 -36 25
-7 0 -16 9 -19 20 -3 11 -13 20 -21 20 -8 0 -12 5 -9 10 3 6 1 10 -4 10 -20 0
-12 21 24 64 32 40 35 48 35 112 l0 68 62 63 c62 62 63 63 119 63 55 0 57 1
112 59 50 52 57 64 57 100 l0 41 175 0 c96 0 175 -4 175 -8z m-787 -416 c-10
-6 -37 -13 -61 -16 -36 -5 -45 -3 -59 16 -9 13 -21 20 -26 17 -6 -3 -7 -1 -3
5 4 6 -5 19 -19 28 -14 9 -25 21 -25 27 0 5 46 57 103 114 l102 104 3 -142 c2
-128 1 -144 -15 -153z"/>
</g>
</svg>
